<svg width="36" height="36" viewBox="0 0 36 36" fill="none" xmlns="http://www.w3.org/2000/svg">
<path d="M13.72 27.69L3.29 17.27C3.12618 17.0787 3.04057 16.8326 3.05029 16.5809C3.06001 16.3293 3.16434 16.0905 3.34244 15.9124C3.52053 15.7343 3.75927 15.63 4.01095 15.6203C4.26263 15.6106 4.5087 15.6962 4.7 15.86L13.7 24.86L31.29 7.28999C31.4813 7.12616 31.7274 7.04055 31.9791 7.05028C32.2307 7.06 32.4695 7.16433 32.6476 7.34242C32.8257 7.52052 32.93 7.75926 32.9397 8.01093C32.9494 8.26261 32.8638 8.50869 32.7 8.69999L13.72 27.69Z" fill="black"/>
</svg>
